<mxfile host="app.diagrams.net" modified="2022-07-02T11:53:31.391Z" agent="5.0 (Windows NT 10.0; WOW64) AppleWebKit/537.36 (KHTML, like Gecko) Chrome/86.0.4240.198 Safari/537.36" etag="wIVbTL6J_62aaAUGMk6w" version="20.0.1" type="github">
  <diagram id="S-OeYAa5ZMG-lntASA9x" name="Page-1">
    <mxGraphModel dx="508" dy="569" grid="0" gridSize="10" guides="1" tooltips="1" connect="1" arrows="1" fold="1" page="1" pageScale="1" pageWidth="827" pageHeight="1169" math="0" shadow="0">
      <root>
        <mxCell id="0" />
        <mxCell id="1" parent="0" />
        <mxCell id="_nswuthQzJ0r4Ldz1rZZ-2" value="" style="rounded=1;whiteSpace=wrap;html=1;fillColor=#f9f7ed;strokeColor=#36393d;" vertex="1" parent="1">
          <mxGeometry x="130" y="160" width="410" height="270" as="geometry" />
        </mxCell>
        <mxCell id="_nswuthQzJ0r4Ldz1rZZ-3" value="&lt;div&gt;&lt;font style=&quot;font-size: 14px;&quot;&gt;桌面虚拟化、应用虚拟&lt;/font&gt;&lt;/div&gt;&lt;div&gt;&lt;font style=&quot;font-size: 14px;&quot;&gt;化、整合应用与数据&lt;/font&gt;&lt;/div&gt;" style="rounded=1;whiteSpace=wrap;html=1;fillColor=#cdeb8b;strokeColor=#36393d;" vertex="1" parent="1">
          <mxGeometry x="140" y="210" width="170" height="60" as="geometry" />
        </mxCell>
        <mxCell id="_nswuthQzJ0r4Ldz1rZZ-4" value="&lt;font style=&quot;font-size: 14px;&quot;&gt;应用&lt;/font&gt;" style="rounded=1;whiteSpace=wrap;html=1;fillColor=#cce5ff;strokeColor=#36393d;" vertex="1" parent="1">
          <mxGeometry x="330" y="190" width="60" height="30" as="geometry" />
        </mxCell>
        <mxCell id="_nswuthQzJ0r4Ldz1rZZ-6" value="" style="line;strokeWidth=11;html=1;fillColor=#647687;strokeColor=#314354;fontColor=#ffffff;" vertex="1" parent="1">
          <mxGeometry x="310" y="250" width="230" height="10" as="geometry" />
        </mxCell>
        <mxCell id="_nswuthQzJ0r4Ldz1rZZ-11" value="&lt;font style=&quot;font-size: 14px;&quot;&gt;应用&lt;/font&gt;" style="rounded=1;whiteSpace=wrap;html=1;fillColor=#cce5ff;strokeColor=#36393d;" vertex="1" parent="1">
          <mxGeometry x="400" y="190" width="60" height="30" as="geometry" />
        </mxCell>
        <mxCell id="_nswuthQzJ0r4Ldz1rZZ-12" value="&lt;font style=&quot;font-size: 14px;&quot;&gt;应用&lt;/font&gt;" style="rounded=1;whiteSpace=wrap;html=1;fillColor=#cce5ff;strokeColor=#36393d;" vertex="1" parent="1">
          <mxGeometry x="470" y="190" width="60" height="30" as="geometry" />
        </mxCell>
        <mxCell id="_nswuthQzJ0r4Ldz1rZZ-15" value="" style="line;strokeWidth=11;html=1;fillColor=#647687;strokeColor=#314354;fontColor=#ffffff;" vertex="1" parent="1">
          <mxGeometry x="310" y="340" width="230" height="10" as="geometry" />
        </mxCell>
        <mxCell id="_nswuthQzJ0r4Ldz1rZZ-16" value="&lt;div&gt;&lt;span style=&quot;font-size: 14px;&quot;&gt;服务器虚拟化、存储虚&lt;/span&gt;&lt;/div&gt;&lt;div&gt;&lt;span style=&quot;font-size: 14px;&quot;&gt;化、网络虚拟化、整合服&lt;/span&gt;&lt;/div&gt;&lt;div&gt;&lt;span style=&quot;font-size: 14px;&quot;&gt;务器、存储网络资源&lt;/span&gt;&lt;/div&gt;" style="rounded=1;whiteSpace=wrap;html=1;fillColor=#cdeb8b;strokeColor=#36393d;" vertex="1" parent="1">
          <mxGeometry x="140" y="310" width="170" height="70" as="geometry" />
        </mxCell>
        <mxCell id="_nswuthQzJ0r4Ldz1rZZ-17" value="&lt;span style=&quot;font-size: 14px;&quot;&gt;虚拟机&lt;/span&gt;" style="rounded=1;whiteSpace=wrap;html=1;fillColor=#ffff88;strokeColor=#36393d;" vertex="1" parent="1">
          <mxGeometry x="330" y="280" width="80" height="30" as="geometry" />
        </mxCell>
        <mxCell id="_nswuthQzJ0r4Ldz1rZZ-18" value="&lt;span style=&quot;font-size: 14px;&quot;&gt;虚拟机&lt;/span&gt;" style="rounded=1;whiteSpace=wrap;html=1;fillColor=#ffff88;strokeColor=#36393d;" vertex="1" parent="1">
          <mxGeometry x="440" y="280" width="80" height="30" as="geometry" />
        </mxCell>
        <mxCell id="_nswuthQzJ0r4Ldz1rZZ-19" value="&lt;span style=&quot;font-size: 14px;&quot;&gt;服务器&lt;/span&gt;" style="rounded=1;whiteSpace=wrap;html=1;fillColor=#d5e8d4;strokeColor=#82b366;" vertex="1" parent="1">
          <mxGeometry x="320" y="380" width="60" height="30" as="geometry" />
        </mxCell>
        <mxCell id="_nswuthQzJ0r4Ldz1rZZ-20" value="&lt;span style=&quot;font-size: 14px;&quot;&gt;存储&lt;/span&gt;" style="rounded=1;whiteSpace=wrap;html=1;fillColor=#fff2cc;strokeColor=#d6b656;" vertex="1" parent="1">
          <mxGeometry x="395" y="380" width="60" height="30" as="geometry" />
        </mxCell>
        <mxCell id="_nswuthQzJ0r4Ldz1rZZ-21" value="&lt;span style=&quot;font-size: 14px;&quot;&gt;网络&lt;/span&gt;" style="rounded=1;whiteSpace=wrap;html=1;fillColor=#f8cecc;strokeColor=#b85450;" vertex="1" parent="1">
          <mxGeometry x="470" y="380" width="60" height="30" as="geometry" />
        </mxCell>
      </root>
    </mxGraphModel>
  </diagram>
</mxfile>
